<svg width="633" height="776" viewBox="0 0 633 776" fill="none" xmlns="http://www.w3.org/2000/svg">
<rect y="72" width="633" height="633" fill="#6D28D8"/>
<path d="M231.808 436.744V365.288H323.592C342.893 365.288 357.677 360.36 367.944 350.504C378.621 340.648 383.96 327.301 383.96 310.464C383.96 294.859 378.827 281.923 368.56 271.656C358.293 261.389 343.509 256.256 324.208 256.256H231.808V181.104H335.296C364.043 181.104 389.299 186.648 411.064 197.736C432.829 208.413 449.872 223.403 462.192 242.704C474.512 262.005 480.672 284.181 480.672 309.232C480.672 334.693 474.512 357.075 462.192 376.376C449.872 395.267 432.624 410.051 410.448 420.728C388.272 431.405 362.195 436.744 332.216 436.744H231.808ZM157.888 616V181.104H254.6V616H157.888ZM394.432 616L258.912 428.736L347.616 404.712L509.008 616H394.432Z" fill="white"/>
</svg>
